<svg xmlns="http://www.w3.org/2000/svg" width="230" height="237" viewBox="-2 1 300 300"><title>BackSphere</title><path d="M145.8,127.5c5-44.5-4.9-73-4.9-73l4.9-2.3c11.6,58.3,8.3,58.6,8.3,58.6,15.8,13.8.4-62.5.4-62.5l3.5-1.8c13.1,21.4,8.6,84.3,8.6,84.3Z" fill="#7b7b7b" stroke="#201600" stroke-miterlimit="10"/><path d="M28.2,149.2c-10.6-11.6-17.6,2.1-17.6,2.1-11.3-4.2,1.8-17.2,1.8-17.2,6-10.8-2.5-13.7-2.5-13.7-1.4,10.8-6.7,9.2-6.7,9.2-8.5-16.7,12.5-31.5,12.5-31.5,2.7-12-8.6-1.8-8.6-1.8C2.1,91,18.4,80.1,18.4,80.1,26.5,79,12,69.8,12,69.8c12.4-3.9,16.2-21.5,16.2-21.5a16.3,16.3,0,0,0,11-7.4c-19.1,5.3,9.9-12,9.9-12C38.5,26.4,89.6.5,89.6.5A282.2,282.2,0,0,0,65.4,17.8c-1.4,1.6,4,2.3,4,2.3,1.5,2.1-13,7.8-13,7.8-4.2.3,3.7,11,3.7,11C66.6,49.7,46,46.4,46,46.4c-4.8,3.8,1.5,11.2,1.5,11.2-12.6-2-10,1.9-10,1.9,34.4,10.6-2.6,12.6-2.6,12.6-7.7,3.1,16.6,11.8,16.6,11.8,9.2,11.7-14.7,3.4-14.7,3.4-8.9,2.4,2,8.3,2,8.3-5.3-.3-3.4,4.8-3.4,4.8a26.5,26.5,0,0,1,16.5,7.2c4.8,2.2-7.2,2.9-7.2,2.9-3.9-.9.1,6.7.1,6.7-4.7-2.8-14.1.3-14.1.3-8.6,2,20.1,8.6,20.1,8.6,3.7,1.4-17.3,8.8-17.3,8.8A109.9,109.9,0,0,0,28.2,149.2Z" fill="#7b7b7b" stroke="#201600" stroke-miterlimit="10"/><path d="M78.4,132l3.3-.3a2.2,2.2,0,0,0,1.5-1A13.2,13.2,0,0,0,85,125a.9.9,0,0,1,1-.9c3.8.2,6,5.3,6.2,6.5s3.1,1.6,3.1,1.3a3.9,3.9,0,0,1,.1-2.2.9.9,0,0,1,1.1-.7c1.5.3,4.2,2.7,5,2.8s.4-.1.5-.3.4-3.3.2-3.3-2.2-2.6-2-3.3c2-7.6.7-9.4.7-9.4-4.4-9.1-14.4-5.4-14.4-5.4-1.9.9-6.2-1.2-6.2-1.2-1.7-.5-2.6.4-4.4,1.8a14,14,0,0,1-6.5,1,1.7,1.7,0,0,0-1.5.5l-1.5,1.4a3.4,3.4,0,0,0-2,2.1,10.1,10.1,0,0,1-2,1.3c-1.5.6.7,1,1,1.4,2.9,2.7,7.1,2,7.5,2,3.3,0,5.3,3.4,5.4,3.8.4,5.5.9,6.7,1,6.9A.9.9,0,0,0,78.4,132Z" fill="#7b7b7b" stroke="#201600" stroke-miterlimit="10"/><path d="M244.6,153.4c.2,0,.1.3,0,.3a13.2,13.2,0,0,0-10.5,6.3c-3.7,6-9.9,14.9-17.3,21.3a27.7,27.7,0,0,1-20,6.4c-14.9-1-47-3.1-50-2.3s-4.9,9.5-22.6,11.8h0c-.4,0-43.7-2-62.1-5.1A13.4,13.4,0,0,1,52,184.2c-3.1-7-8.5-18.5-13.5-23.7-1.5-1.5-10.3-3.8-17.1-4.7-2.9-.3-16.3.1-20.6.2a.3.3,0,0,1-.1-.5C124.3,100.8,235.6,149.3,244.6,153.4Z" fill="#7b7b7b" stroke="#201600" stroke-miterlimit="10"/><path d="M107.4,13.1a90.7,90.7,0,0,1,9.7-5A3.6,3.6,0,0,0,119.3,5c.2-5.6,19.1-1.7,19.1-1.7,8.2,2.7.8,2.7-3,2.6a9.5,9.5,0,0,0-4.1.6c-15.5,5.3-16.9,10.1-16.9,10.1-.6,2.2-4.2.8-6.8-.4A1.8,1.8,0,0,1,107.4,13.1Z" fill="#7b7b7b" stroke="#201600" stroke-miterlimit="10"/><path d="M153.2,18l4.1,5.4a1.1,1.1,0,0,1-.7,1.6,24.1,24.1,0,0,0-13.4,6.5,2.1,2.1,0,0,1-1.3.7c-16.5,3.8-2.3-4.8,2.2-7.5a1.5,1.5,0,0,0,.6-2c-5-8.6.2-8.6,3.9-7.7A8.3,8.3,0,0,1,153.2,18Z" fill="#7b7b7b" stroke="#201600" stroke-miterlimit="10"/><path d="M143.8.7a13.7,13.7,0,0,0,2.8,3c1.9.6,4.7-.9,4.7-.9C146.6-.5,143.8.7,143.8.7Z" fill="#7b7b7b" stroke="#201600" stroke-miterlimit="10"/><path d="M181.1,15.6c.5,0,.6-.7.2-.8C163.5,9.1,162,9.9,162,9.9c-6.6,0-3,4.3-3,4.3C161.4,14.8,174.9,15.4,181.1,15.6Z" fill="#7b7b7b" stroke="#201600" stroke-miterlimit="10"/><path d="M123,129.1c2.2-3.2,1.5-3.9,1.5-3.9-3.7,2.1-6.1,2-6.1,2,4.8-4.2-1-3.2-1-3.2-2.2-2,8.3-3,8.3-3,9.5-3.8-2.4-1.6-2.4-1.6.7-3.5-3.4-1.2-3.4-1.2-3.6-1.7,6.4-5.6,6.4-5.6,2-1.5-1.3-2.1-1.3-2.1,1.3-1.9,2.5-1.2,2.5-1.2,1.9-2.5-1.9-2.3-1.9-2.3-5.5,2.9-5.2.9-5.2.9-3.1-2.5,7.9-7.2,7.9-7.2C132.8,99,122,99,122,99c-2.8.4,6.9-5.7,6.9-5.7.5-4.7-2-1-2-1-1.4-2.5,3.3-3.6,3.3-3.6,1.5-2-2.7-1.8-2.7-1.8,5-1.6,3.1-3.6,3.1-3.6-2.1-.4,1-2,1-2-1.3-1.6.9-5.3.9-5.3,0,2,1.6,5.3,1.6,5.3,2,.6,0,3.8,0,3.8s3.2,1.1,3.2,1.1c.5,1.8-2.6,1.9-2.6,1.9-.9,1.7,3.8,2.4,3.8,2.4,1.6,1.7-2.3,1.9-2.3,1.9-3.9,2.7,5.2,2.7,5.2,2.7,2.8.9,0,1.6,0,1.6s.4,2.2.4,2.2c1.6.6-3.1-.7-3.1-.7a3.4,3.4,0,0,0-.4,2.1c-2.6-2.9-3,1-3,1s8.2,1.3,8.2,1.3c3.3,3.4-6.9,3.9-6.9,3.9-1.3,2,5.5,5.2,5.5,5.2,1.4,1.7-1,1.5-1,1.5-1.6,1.3,3.1,4.1,3.1,4.1s-6.6-.1-6.6-.1c-2.7,1.8,7.8,4,7.8,4,2,.5,1.2,3.5,1.2,3.5-4.3-1.2-8.9,1.7-8.9,1.7,6.5.4,3.9,2.1,3.9,2.1l-5.1,1.1Z" fill="#7b7b7b" stroke="#201600" stroke-miterlimit="10"/></svg>