<svg xmlns="http://www.w3.org/2000/svg" width="300" height="300" viewBox="0 0 400 400"><title>FrontSphere</title><path d="M166.9,280.1v29.5c0,5.1-17,9.2-38.1,9.2s-38.2-4.1-38.2-9.2V281.5c-15.8,6.4-26,16.6-26,28.1,0,19.5,29.5,35.4,66,35.4s66-15.9,66-35.4C196.6,297.3,184.8,286.4,166.9,280.1Z" fill="#fff" stroke="#201600" stroke-miterlimit="10"/><path d="M166.9,249.3v60.3c0,5.1-17,9.2-38.1,9.2s-38.2-4.1-38.2-9.2V249.3a127.5,127.5,0,0,0,74.1,0Z" fill="#fff" stroke="#201600" stroke-miterlimit="10"/><path d="M251.2,157.7a127.4,127.4,0,0,1-86.5,91.6,127.5,127.5,0,0,1-74.1,0A127.5,127.5,0,0,1,4.7,160.1s18.5-.6,22-.2c6.8.9,15.6,3.2,17.1,4.7,5,5.2,10.4,16.7,13.5,23.7a13.4,13.4,0,0,0,10.1,7.9c18.5,3.1,62.1,5.1,62.1,5.1,17.7-2.3,18.8-10.7,22.6-11.8s35.1,1.3,50,2.3a27.7,27.7,0,0,0,20-6.4c7.4-6.4,13.6-15.4,17.3-21.3a13.4,13.4,0,0,1,11.1-6.4Z" fill="#fff" stroke="#201600" stroke-miterlimit="10"/><path d="M4.7,160.1a127.2,127.2,0,1,1,250.1-32.5,129.2,129.2,0,0,1-3.6,30.1" fill="none" stroke="#201600" stroke-miterlimit="10"/><path d="M42.5,162.9c-1.5-6.8,0-11,.8-12.5s3-4.8,3.2-5.1c2.9-5.4,4.2-8,4.2-8a3.4,3.4,0,0,0,.3-3.2,2.5,2.5,0,0,1-.2-1.5,8.1,8.1,0,0,1,3.4-5.2c.5-1-.1-1.2-.7-1.3s-.4-.2-.5-.5-.2-1.7-.2-2.3a.6.6,0,0,0-.9-.5,72.1,72.1,0,0,0-8.4,5,1.8,1.8,0,0,0-.7,1.9c.4,2-2.4,4.2-4.1,5.2a5.9,5.9,0,0,1-2.9.7,27.4,27.4,0,0,1-7.4-.6c-4.7-.9-6,4.9-6,4.9s-2.9,1.4-4.3,1.5a2.4,2.4,0,0,0-1.6.7c-2.6,3.2,1.7,4.2,1.7,4.2a18.2,18.2,0,0,0,5.2.1.5.5,0,0,1,.5.5c-.1,3.9-1,5.3-1.4,5.8a4.1,4.1,0,0,0-.5.9,17.8,17.8,0,0,0-.3,4.7.9.9,0,0,0,.9.8h.6a12.8,12.8,0,0,1-.2-2.9c.2-.2.8.2.9.3s.4,1.7.4,1.7a1.4,1.4,0,0,0,1,1h.5l-.5-2.3a3.1,3.1,0,0,1,.4-2.1c2.2-3.7,3.4-5.5,3.9-6.3a1.5,1.5,0,0,1,1.4-.5l7.2,2.7a2,2,0,0,1,1.1,1.7c0,6.7.1,9,.1,9.8a.5.5,0,0,0,.3.5l1.9.6C42.2,163.6,42.6,163.3,42.5,162.9Z" fill="#fff" stroke="#201600" stroke-miterlimit="10"/><path d="M78.9,195.8c-1.3-9.1-1.3-14-1.5-16.2a4.2,4.2,0,0,1,1.1-3.2,7.7,7.7,0,0,0,1.9-3.2,4.3,4.3,0,0,0,0-3,1.7,1.7,0,0,1,.2-1.8,8.7,8.7,0,0,0,1.7-3.8,2.9,2.9,0,0,1,1.1-1.9,13,13,0,0,0,3.1-4c2.3-2.1,3.7,1.6,3.4,3.2s.3,1,1.6,1.6-.1,1.3-.6,2.2a4.4,4.4,0,0,0-.2,2c.8,5.5,1.4,8.1,1.4,8.1a46.7,46.7,0,0,1-.3,10c-.2,5.6.6,9.2,1.5,11.4a1.1,1.1,0,0,1-1.9,1.2,6.6,6.6,0,0,1-1-1.8c-.2-.7-.7-6.2-.7-6.2-1.6.5-.6,5.5-.2,7.3s-2.1.3-2.3-.4c-.5-2.8-.9-4.5-1.1-5.4a.4.4,0,0,0-.7,0,11.6,11.6,0,0,0-.3,4.7,2.7,2.7,0,0,1-1.1.5c-.5.1-1.8-6.6-1.8-6.6-3-1.9-1.6,6.3-1.6,6.3S78.9,196.3,78.9,195.8Z" fill="#fff" stroke="#201600" stroke-miterlimit="10"/><path d="M119.7,200.3c-2.7-9.3.5-6.7.5-6.7,2,3.2,3.3,4.1,3.9,4.3a.4.4,0,0,0,.6-.3c.3-1.7-.8-3.2-1.6-4.1a5.7,5.7,0,0,1-1.3-2.1,48.1,48.1,0,0,1-2-6.5c-3.6-8.9-11.5-8.4-11.5-8.4a3.7,3.7,0,0,1-3.6-3.7,7.4,7.4,0,0,0-.8-2.8,41.7,41.7,0,0,0-6.8-7.9c-1.7-1-1.9,1.4-1.9,2.7s.1,1.6-.9,1.3-.9.7-.9,1.2c-.4,16,4.8,24,4.8,24,2.4,3,.6,7.5.6,7.5l2.9.3a23.3,23.3,0,0,1-.2-7.5l1.6.2a11.5,11.5,0,0,1,.5,7.3l3.1.3a11.3,11.3,0,0,1-.7-7.5c4.6-2.5,9,2.4,9,2.4,1.9,2.5.6,5.7.6,5.7Z" fill="#fff" stroke="#201600" stroke-miterlimit="10"/><path d="M223.8,44.5S182.9-6.3,112.5,1.5A36.6,36.6,0,0,0,96.4,7.4c-4.8,3.2-10,7.3-9.9,9.9a2.8,2.8,0,0,1-1.6,2.8c-2.1,1-4.7,2.7-5.2,4.8a4.3,4.3,0,0,1-2.5,2.9A37.2,37.2,0,0,0,63.1,37,11,11,0,0,0,60,42.8c-.8,4.5-.1,11.2,12,9.3a22.8,22.8,0,0,0,6.8-2.3c5.8-3.1,17-10.8,11.4-21.2A2.5,2.5,0,0,1,91.5,25c4-1.6,10.7-3.3,9.7,2.8a3.4,3.4,0,0,0,1.6,3.6c2,1.2,4.3,3.3,1.9,5.9a3.1,3.1,0,0,0-.6,3.2c.4,1,1.4,1.9,3.6,1.4a4,4,0,0,1,3.9,1c2,2.1,5.1,4.8,5.3,1a4.6,4.6,0,0,1,1.8-3.2,26.4,26.4,0,0,0,5.1-4.4s7.6-10.5,8.4-1.2c0,0,.3,4.4,1,4.9s2.2,2.2.6,2.2a2.1,2.1,0,0,0-1.8,1.2,2.9,2.9,0,0,1-2,1.6c-2.3.7-6.3,2.1-5.5,3.3s1.5,2.7.2,2.6a2.9,2.9,0,0,0-1.8,2.1,5.4,5.4,0,0,1-2.2,4.4s-2.5,1.2-2.9,2.3-.1,6.9-5.6,6.9c0,0-7,.5-8.1,4.4,0,0,2,4-.6,3.1a3.5,3.5,0,0,0-1.9.2,1.7,1.7,0,0,0-1,2.3c.5,1.4,1.8,3.1,4.9,2.4,0,0,6.3-2.2,4.9.2,0,0-4.2,2.2-3.3,4.1,0,0,1.2,7.4,5.2,4.7s24.7-8.1,25-17.5a3.7,3.7,0,0,1,1.7-2.9c4.7-2.5,16.8-9.3,19-14.3a4.3,4.3,0,0,1,3.3-2.4c5.6-.9,16.1-3.4,6.5-8.7a5.6,5.6,0,0,0-3.3-.8c-4.4.3-16.4.6-12.9-5.1,0,0,12.5-14.4,23.3,11.4a5.5,5.5,0,0,1-.4,5c-1.7,2.7-5.4,6.5-13.2,8.6a3.4,3.4,0,0,0-2.6,3.8,8,8,0,0,1-2,6.5s-10.2,11-1.7,8.7c0,0,4.8-.6,13.7-3.8a9.6,9.6,0,0,0,4.3-3.1c1.6-2.2,4.4-5.6,7.2-7a2.7,2.7,0,0,1,3.7,1.2c4.3,8.9,20.4,47.7,12,123.8l8.2.5c10.6-80-13.3-127.2-13.3-127.2-1.2-4.2,2.3-4.2,2.3-4.2,13.7,6.8,17.1,3.2,17.1,3.2-.4-12.5-14.5-17.1-14.5-17.1a21.6,21.6,0,0,1-21.5-11c-1-1.7,4.4-.8,4.4-.8,8.8-.7-3.6-3.4-3.6-3.4-6.6-4.4-7.2-8.2-7.2-8.2,0-4.5,12.6-1.8,12.6-1.8,7.5,2,8.3,3.9,8.3,3.9C182.5,26.8,191,33,191,33c5.3,0,6.4,8.7,6.4,8.7,4.5,4,8.1,1.7,8.1,1.7-.5-3.6,5.2,2.1,5.2,2.1,3.1-2.7,7.9,6,7.9,6a18.9,18.9,0,0,0,9.2,2.2C228.1,51.1,223.8,44.5,223.8,44.5ZM156.6,6.8s-2.8,1.6-4.6,1a12.9,12.9,0,0,1-2.9-3S152,3.6,156.6,6.8Zm-20,3.8c-15.5,5.3-16.9,10.1-16.9,10.1-.6,2.2-4.2.8-6.8-.4a1.8,1.8,0,0,1-.2-3.1,90.7,90.7,0,0,1,9.7-5A3.6,3.6,0,0,0,124.6,9c.2-5.5,19.1-1.6,19.1-1.6,8.2,2.7.8,2.7-3,2.5A11.4,11.4,0,0,0,136.6,10.6Zm25.3,18.5a24.5,24.5,0,0,0-13.4,6.5,2.1,2.1,0,0,1-1.3.7c-16.5,3.8-2.3-4.9,2.2-7.5a1.5,1.5,0,0,0,.6-2c-5-8.6.2-8.6,3.9-7.7a8.7,8.7,0,0,1,4.6,2.9l4.1,5.5A1.1,1.1,0,0,1,161.9,29.1Zm24.5-9.4c-6.2-.2-19.7-.8-22.1-1.4,0,0-3.6-4.3,3-4.3,0,0,1.5-.8,19.3,4.9C187,19,186.9,19.7,186.4,19.7Z" fill="#fff" stroke="#201600" stroke-miterlimit="10"/><path d="M9.3,158.1C5,143.6,3.1,141.9,3.1,141.9c-1.1-7,4,.8,4,.8,1.6,1.7,1.3-5.1,1.3-5.1.4-3.1,2.3,4.2,2.3,4.2,5.9,2.1-.5-11.3-.5-11.3.7-8.2-3.4-12.3-3.4-12.3-3.4-5.3.5-11.9.5-11.9.8-2.7-1-6.4-1-6.4a8.4,8.4,0,0,1,1.8-6.6c1.5-4.9,1.8,3.6,1.8,3.6,2.5-1.6,2.1,3.7,2.1,3.7,1.6,5.2,3.7-6.1,3.7-6.1a4.4,4.4,0,0,1,2.7-4.4c2.9,0,.9-5.7.9-5.7-2.3,1.2,1.4-15.1,1.4-15.1-2.7-4,1.8-7.3,1.8-7.3,8.4-7.5,1.4,3.7,1.4,3.7.6,6.6,7.3-6.3,7.3-6.3,0-2,.4-8.4.6-11.6s10.5-6.7,11.5-10.5S85.1,9.6,90.1,6.6c.1-.1,0-.3-.2-.3C-25,45.7,4.7,160.1,4.7,160.1Z" fill="#fff" stroke="#201600" stroke-miterlimit="10"/><path d="M243.1,154.4c-14-4.1-3.7-7.2-3.7-7.2,10.6-6.5,2.7-9.2,2.7-9.2-2.2,5.6-5.1,3.1-5.1,3.1,3.4-7.4,3.4-9.8,3.4-9.8-3.1,1.2-2.7-1.5-2.7-1.5,4.9-5,4.9-12.1,4.9-12.1-2.7,1.7-4.6,5.4-4.6,5.4-2.8,3.4-1.8-5.4-1.8-5.4,4.2-1.2.3-3.6.3-3.6-1.9-2,5.9-6.5,5.9-6.5,2.2-5.8-3.9-5.6-3.9-5.6-.8,4.8-3.4,2.1-3.4,2.1,4.2-7.1-.7-3.4-.7-3.4-2.4,2,1.4-5.4,1.4-5.4,6.7,2.4,2.2-3.7,2.2-3.7-8.1,6.2-4.4-7.2-4.4-7.2-.3-10.3-3.9-3.1-3.9-3.1-3.3-2,0-10.1,0-10.1-2-3.5-4.7,0-4.7,0-2.4-2.1.7-6.7.7-6.7-.2-4.4-3.1-1.8-3.1-1.8a10.8,10.8,0,0,0-2.3-9.6c-.4-.3.1-.9.5-.7a18.3,18.3,0,0,1,9,11.6c5.2.8,3.4,6.4,3.4,6.4-1,3.2,4.2,2.8,4.2,2.8,3.1,2.7-.1,4.1-.1,4.1-1.3,3.1,4.1,5.7,4.1,5.7-.2,2.3,3.6,6.8,3.6,6.8-4.2-1.5-.9,3.2-.9,3.2,4.6,1.8,5.9,7.5,5.9,7.5-4.7-2.9-2.6,1.8-2.6,1.8,3.9,2.3,5.2,12.7,5.2,12.7-3.5-1.3-3.8,2.8-3.8,2.8,3.3,2.1,1.2,4.5,1.2,4.5,6.7,6.1,0,14,0,14a10.8,10.8,0,0,0,3.9,6.2c.9,3.8-3.9,4-3.9,4-1.6,1.6,0,11,0,11Z" fill="#fff" stroke="#201600" stroke-miterlimit="10"/><path d="M209.4,191.4c7.7-11.1-3.4-9.5-3.4-9.5,2.7-6.6,6.1-5.4,6.1-5.4,9.1-5.8,5-7.8,5-7.8-9.6,1.8,3.1-9.3,3.1-9.3,4-3.1-2.2-4.3-2.2-4.3-4.2,2.4-1.8-2.1-1.8-2.1,3.1-3-1-1.8-1-1.8a11.2,11.2,0,0,1,6.9-2.7c2.9-4.9-2.7-7.1-2.7-7.1s3-1.4,3-1.4c-.4-2,.9-2.5.9-2.5,1.4-2.8-1.9-4.1-1.9-4.1,2.4-.9,3.2-6,3.2-6a20.9,20.9,0,0,0,.9,5.7c-.4,6.9,1.6,7.5,1.6,7.5-6.4,6.1,1.7,7.7,1.7,7.7,2,.8,0,7.1,0,7.1-2.6-.2-4,2.3-4,2.3a27,27,0,0,0,4.9,9.1c.1,5.7-2.6,6.9-2.6,6.9-6.9-3.7-2.9,7.3-2.9,7.3-4.3,0-4,1.6-4,1.6,1.8-.2,2.6,2.2,2.6,2.2C220.2,188.6,209.4,191.4,209.4,191.4Z" fill="#fff" stroke="#201600" stroke-miterlimit="10"/><path d="M154.1,189.3c3.9-5.6,2.6-6.9,2.6-6.9-6.5,3.7-10.7,3.5-10.7,3.5,8.4-7.3-1.8-5.6-1.8-5.6-3.9-3.5,14.6-5.3,14.6-5.3,16.8-6.7-4.2-2.8-4.2-2.8,1.2-6.2-6-2.1-6-2.1-6.4-3,11.3-10,11.3-10,3.5-2.6-2.3-3.6-2.3-3.6,2.3-3.4,4.4-2.1,4.4-2.1,3.4-4.4-3.3-4.1-3.3-4.1-9.7,5.1-9.2,1.6-9.2,1.6-5.5-4.4,13.9-12.7,13.9-12.7,8-3-11.1-3-11.1-3-4.9.7,12.2-10.1,12.2-10.1.9-8.3-3.5-1.7-3.5-1.7-2.5-4.4,5.8-6.4,5.8-6.4,2.6-3.5-4.8-3.2-4.8-3.2,8.8-2.8,5.3-6.3,5.3-6.3-3.5-.7,1.9-3.6,1.9-3.6-2.2-2.8,1.6-9.3,1.6-9.3,0,3.5,2.9,9.3,2.9,9.3,3.5,1.1,0,6.8,0,6.8.1,1.6,5.6,1.9,5.6,1.9.9,3.2-4.6,3.4-4.6,3.4-1.6,3,6.7,4.2,6.7,4.2,2.8,3-4,3.4-4,3.4-6.9,4.7,9.1,4.7,9.1,4.7,5,1.6,0,2.8,0,2.8-2.4.6.7,3.9.7,3.9,2.9,1.1-5.4-1.2-5.4-1.2a5.6,5.6,0,0,0-.7,3.7c-4.6-5.1-5.3,1.8-5.3,1.8.2,1.9,14.4,2.2,14.4,2.2,5.9,6.1-12.1,6.9-12.1,6.9-2.3,3.6,9.7,9.2,9.7,9.2,2.4,3-1.8,2.7-1.8,2.7-2.8,2.3,5.4,7.2,5.4,7.2,1,1.9-11.6-.2-11.6-.2-4.7,3.2,13.8,7.1,13.8,7.1,3.5.9,2.1,6.2,2.1,6.2-7.6-2.2-15.7,3-15.7,3,11.5.7,6.9,3.7,6.9,3.7l-9,1.9Z" fill="#fff" stroke="#201600" stroke-miterlimit="10"/></svg>